<svg width="307" height="30" viewBox="0 0 307 30" fill="none" xmlns="http://www.w3.org/2000/svg">
<path d="M6.37597 15.6587L16.9102 19.3137V24.4053L0.997971 17.7681V13.4765L16.9102 6.83931V11.9309L6.37597 15.6587ZM30.2321 22.5142H42.0046V26.8966H24.6878V0.420258H30.2321V22.5142ZM64.4192 15.4223H53.7741V22.5142H66.2673V26.8966H48.2298V0.420258H66.2304V4.83903H53.7741V11.1489H64.4192V15.4223ZM87.7394 21.4413H78.0184L76.1703 26.8966H70.2748L80.2915 0.420258H85.4293L95.5015 26.8966H89.606L87.7394 21.4413ZM79.5153 17.0225H86.2425L82.8604 7.11207L79.5153 17.0225ZM111.005 17.2044H106.587V26.8966H101.043V0.420258H111.041C114.22 0.420258 116.672 1.11732 118.397 2.51144C120.121 3.90558 120.984 5.87554 120.984 8.42133C120.984 10.2276 120.584 11.7369 119.783 12.9492C118.994 14.1493 117.793 15.1071 116.178 15.8223L122.001 26.642V26.8966H116.049L111.005 17.2044ZM106.587 12.7856H111.059C112.452 12.7856 113.53 12.4401 114.293 11.749C115.058 11.0459 115.439 10.0822 115.439 8.85776C115.439 7.60911 115.077 6.62715 114.349 5.9119C113.635 5.19666 112.532 4.83903 111.041 4.83903H106.587V12.7856ZM150.126 26.8966H144.581L133.789 9.47603V26.8966H128.244V0.420258H133.789L144.6 17.8771V0.420258H150.126V26.8966ZM274.855 29.1696H270.882L280.788 0.420258H284.761L274.855 29.1696ZM301.262 15.6041L290.525 11.9127V6.85749L306.621 13.4947V17.7681L290.525 24.4235V19.3501L301.262 15.6041Z" fill="#81D343"/>
<path d="M157.922 24.3144C157.922 23.4779 158.205 22.7991 158.772 22.2778C159.351 21.7564 160.072 21.4958 160.934 21.4958C161.809 21.4958 162.53 21.7564 163.097 22.2778C163.675 22.7991 163.965 23.4779 163.965 24.3144C163.965 25.1388 163.681 25.8116 163.115 26.3329C162.548 26.842 161.822 27.0966 160.934 27.0966C160.059 27.0966 159.338 26.842 158.772 26.3329C158.205 25.8116 157.922 25.1388 157.922 24.3144ZM188.228 16.0769H177.583V26.8965H172.039V0.42025H189.559V4.83902H177.583V11.6763H188.228V16.0769ZM207.446 21.4413H197.724L195.877 26.8965H189.98L199.998 0.42025H205.135L215.207 26.8965H209.312L207.446 21.4413ZM199.221 17.0225H205.949L202.566 7.11206L199.221 17.0225ZM234.701 19.9502C234.701 18.9198 234.332 18.1317 233.593 17.5862C232.854 17.0285 231.523 16.4466 229.601 15.8405C227.679 15.2222 226.157 14.6161 225.036 14.0221C221.981 12.3976 220.453 10.2094 220.453 7.45756C220.453 6.02706 220.859 4.75416 221.673 3.63887C222.498 2.51144 223.675 1.63254 225.202 1.00215C226.743 0.371758 228.468 0.0565643 230.377 0.0565643C232.299 0.0565643 234.012 0.402066 235.515 1.09307C237.019 1.77195 238.183 2.73571 239.008 3.98436C239.846 5.23302 240.264 6.65139 240.264 8.23948H234.72C234.72 7.0272 234.332 6.08768 233.557 5.42092C232.78 4.74204 231.689 4.40261 230.285 4.40261C228.929 4.40261 227.876 4.68749 227.124 5.25726C226.374 5.81491 225.997 6.55441 225.997 7.47574C225.997 8.33646 226.435 9.05778 227.309 9.63967C228.197 10.2216 229.496 10.7671 231.209 11.2763C234.363 12.2097 236.661 13.3675 238.103 14.7494C239.544 16.1315 240.264 17.8529 240.264 19.9138C240.264 22.205 239.384 24.0053 237.622 25.3145C235.86 26.6116 233.488 27.2603 230.507 27.2603C228.436 27.2603 226.551 26.8904 224.851 26.151C223.151 25.3993 221.852 24.375 220.952 23.0779C220.065 21.7807 219.622 20.2775 219.622 18.5681H225.185C225.185 21.4897 226.958 22.9505 230.507 22.9505C231.825 22.9505 232.854 22.6899 233.593 22.1686C234.332 21.6353 234.701 20.8957 234.701 19.9502ZM267.318 4.83902H259.075V26.8965H253.532V4.83902H245.399V0.42025H267.318V4.83902Z" fill="#4AA9E0"/>
</svg>
