<svg width="398" height="496" viewBox="0 0 398 496" fill="none" xmlns="http://www.w3.org/2000/svg">
<path d="M181.735 87.4243C134.52 2.23249 -20.6754 7.29128 -92.3716 20.4697C-154.013 55.5411 -92.3716 156.93 -111.389 203.479C-130.405 250.028 -138.275 341.214 -57.6164 438.139C23.0417 535.064 308.296 382.025 338.461 277.448C368.626 172.871 240.753 193.914 181.735 87.4243Z" stroke="#4AA9E0"/>
<path d="M108.735 75.4243C61.5204 -9.76751 -93.6754 -4.70872 -165.372 8.46965C-227.013 43.5411 -165.372 144.93 -184.389 191.479C-203.405 238.028 -211.275 329.214 -130.616 426.139C-49.9583 523.064 235.296 370.025 265.461 265.448C295.626 160.871 167.753 181.914 108.735 75.4243Z" stroke="#4AA9E0"/>
<path d="M235.735 113.424C188.52 28.2325 33.3246 33.2913 -38.3716 46.4697C-100.013 81.5411 -38.3716 182.93 -57.3885 229.479C-76.4055 276.028 -84.2746 367.214 -3.61643 464.139C77.0417 561.064 362.296 408.025 392.461 303.448C422.626 198.871 294.753 219.914 235.735 113.424Z" stroke="#4AA9E0"/>
</svg>
