<svg width="305" height="665" viewBox="0 0 305 665" fill="none" xmlns="http://www.w3.org/2000/svg">
<path d="M118.935 276.491C42.0352 336.267 70.9449 488.831 95.0123 557.64C139.162 613.142 229.843 536.616 278.766 548.233C327.69 559.851 418.999 553.577 502.34 458.949C585.68 364.32 390.518 106.051 282.543 92.3588C174.567 78.6665 215.06 201.77 118.935 276.491Z" stroke="#93F04D"/>
<path d="M118.326 350.468C41.4257 410.244 70.3355 562.808 94.4029 631.617C138.553 687.119 229.233 610.593 278.157 622.211C327.081 633.829 418.39 627.555 501.73 532.926C585.071 438.298 389.909 180.028 281.933 166.336C173.958 152.644 214.451 275.747 118.326 350.468Z" stroke="#93F04D"/>
<path d="M120.442 219.13C43.5421 278.906 72.4518 431.47 96.5192 500.279C140.669 555.781 231.35 479.254 280.273 490.872C329.197 502.49 420.506 496.216 503.847 401.588C587.187 306.959 392.025 48.69 284.05 34.9977C176.074 21.3054 216.567 144.409 120.442 219.13Z" stroke="#93F04D"/>
</svg>
