<svg width="347" height="34" viewBox="0 0 347 34" fill="none" xmlns="http://www.w3.org/2000/svg">
<path d="M7.20671 17.7465L19.1135 21.8888V27.6593L1.12799 20.1371V15.2734L19.1135 7.75121V13.5217L7.20671 17.7465ZM34.1712 25.5161H47.4775V30.4828H27.9045V0.476288H34.1712V25.5161ZM72.8126 17.4786H60.7805V25.5161H74.9015V30.4828H54.5138V0.476288H74.8598V5.48423H60.7805V12.6355H72.8126V17.4786ZM99.1713 24.3001H88.1836L86.0947 30.4828H79.4311L90.753 0.476288H96.5601L107.945 30.4828H101.281L99.1713 24.3001ZM89.8756 19.2922H97.4793L93.6566 8.06034L89.8756 19.2922ZM125.468 19.4983H120.474V30.4828H114.208V0.476288H125.509C129.102 0.476288 131.873 1.2663 133.823 2.8463C135.772 4.42631 136.748 6.65894 136.748 9.54417C136.748 11.5913 136.295 13.3019 135.389 14.6758C134.498 16.0359 133.141 17.1213 131.316 17.9319L137.897 30.1942V30.4828H131.17L125.468 19.4983ZM120.474 14.4903H125.53C127.104 14.4903 128.322 14.0987 129.185 13.3156C130.049 12.5187 130.48 11.4264 130.48 10.0388C130.48 8.62365 130.07 7.51077 129.248 6.70015C128.441 5.88954 127.194 5.48423 125.509 5.48423H120.474V14.4903ZM169.687 30.4828H163.419L151.221 10.7395V30.4828H144.953V0.476288H151.221L163.441 20.2607V0.476288H169.687V30.4828ZM310.667 33.0589H306.176L317.373 0.476288H321.864L310.667 33.0589ZM340.514 17.6847L328.378 13.501V7.77182L346.572 15.294V20.1371L328.378 27.68V21.9301L340.514 17.6847Z" fill="#81D343"/>
<path d="M178.498 27.5563C178.498 26.6083 178.818 25.8389 179.458 25.2482C180.113 24.6573 180.928 24.3619 181.903 24.3619C182.892 24.3619 183.707 24.6573 184.347 25.2482C185.001 25.8389 185.329 26.6083 185.329 27.5563C185.329 28.4906 185.008 29.2531 184.368 29.8439C183.727 30.421 182.906 30.7095 181.903 30.7095C180.914 30.7095 180.099 30.421 179.458 29.8439C178.818 29.2531 178.498 28.4906 178.498 27.5563ZM212.753 18.2205H200.721V30.4828H194.454V0.476294H214.257V5.48424H200.721V13.2332H212.753V18.2205ZM234.475 24.3002H223.486L221.398 30.4828H214.734L226.056 0.476294H231.863L243.247 30.4828H236.584L234.475 24.3002ZM225.178 19.2922H232.782L228.959 8.06035L225.178 19.2922ZM265.282 22.6102C265.282 21.4424 264.864 20.5492 264.029 19.931C263.194 19.299 261.689 18.6395 259.517 17.9526C257.344 17.2518 255.624 16.5649 254.357 15.8917C250.904 14.0507 249.177 11.5707 249.177 8.45191C249.177 6.83068 249.636 5.38806 250.555 4.12406C251.488 2.84631 252.818 1.85022 254.545 1.13578C256.286 0.421337 258.236 0.0641174 260.394 0.0641174C262.566 0.0641174 264.502 0.455686 266.201 1.23882C267.901 2.00822 269.216 3.10048 270.149 4.51562C271.096 5.93076 271.569 7.53826 271.569 9.33809H265.303C265.303 7.96417 264.864 6.89939 263.987 6.14372C263.109 5.37432 261.877 4.98963 260.289 4.98963C258.757 4.98963 257.567 5.3125 256.717 5.95824C255.869 6.59024 255.443 7.42834 255.443 8.47252C255.443 9.448 255.937 10.2655 256.926 10.925C257.929 11.5845 259.398 12.2027 261.334 12.7798C264.899 13.8377 267.497 15.1498 269.126 16.716C270.755 18.2824 271.569 20.2333 271.569 22.569C271.569 25.1656 270.574 27.206 268.583 28.6898C266.591 30.1599 263.91 30.895 260.54 30.895C258.2 30.895 256.069 30.4758 254.148 29.6378C252.226 28.7859 250.757 27.625 249.74 26.1549C248.738 24.6848 248.237 22.9812 248.237 21.0439H254.525C254.525 24.355 256.529 26.0106 260.54 26.0106C262.03 26.0106 263.194 25.7153 264.029 25.1245C264.864 24.52 265.282 23.6818 265.282 22.6102ZM302.148 5.48424H292.831V30.4828H286.565V5.48424H277.373V0.476294H302.148V5.48424Z" fill="#4AA9E0"/>
</svg>
